<svg id="Capa_1" data-name="Capa 1" xmlns="http://www.w3.org/2000/svg" viewBox="0 0 471.25532 471.25532"><defs><style>.cls-1{fill:#e35660;}.cls-2{fill:#fff;}</style></defs><circle class="cls-1" cx="235.62766" cy="235.62766" r="235.62766"/><path class="cls-2" d="M375.54787,292.12453c-18.28125-46.043-80.64551-170.41895-93.76953-190.60938-13.24121-20.37158-29.47705-24.648-40.76514-24.648-30.71142,0-46.21094,30.16309-47.54443,32.88135-3.90186,7.57764-80.45166,156.38379-88.88526,183.709-9.14892,29.64355,3.252,52.6621,4.416,54.72265,1.30273,2.34375,18.76465,32.39942,56.72461,32.39844q2.29761,0,4.69775-.15137c29.79-1.89551,57.18555-28.03711,70.07569-42.37207,24.84277,31.75781,51.168,39.86914,69.56445,40.83594a76.18983,76.18983,0,0,0,38.47168-7.90039,70.37935,70.37935,0,0,0,21.23389-19.4961C378.36086,339.41066,386.33889,319.30129,375.54787,292.12453ZM241.33742,309.61867c-13.31348-17.12305-34.1543-48.52344-34.1543-70.17334,0-32.9541,31.01319-33.333,32.3335-33.333,9.92236,0,33,3.59961,33,36.94141C272.51662,269.15187,252.21926,296.7173,241.33742,309.61867ZM355.44875,340.563A52.62611,52.62611,0,0,1,339.792,355.25539c-1.916,1.05767-46.00464,24.433-87.22363-31.05524,11.49884-13.05048,37.94824-46.80182,37.94824-81.14642,0-40.55225-27.47314-54.94141-51-54.94141a55.06446,55.06446,0,0,0-30.76025,9.85254c-8.9292,6.40185-19.57325,18.79541-19.57325,41.48047,0,30.52295,28.47028,69.3435,40.16687,84.00409-9.96753,11.51062-35.05212,37.42236-60.07116,39.015-30.23975,1.92676-43.978-22.01172-44.52442-22.98926-.0542-.10156-.03515-.06738-.09326-.167-.40625-.7207-9.86572-17.90234-2.87842-40.542,6.40625-20.75488,60.19043-127.38428,87.73487-180.8667.0415-.07959.08105-.16016.12011-.24121.10889-.228,11.12159-22.791,31.37549-22.791,9.9375,0,18.5752,5.53711,25.67334,16.45752,12.26221,18.86524,74.40772,142.80371,92.13184,187.44239C364.99855,314.33156,363.86476,328.39406,355.44875,340.563Z" transform="translate(-4.37234 -6)"/></svg>