<svg id="Capa_1" data-name="Capa 1" xmlns="http://www.w3.org/2000/svg" viewBox="0 0 471.25532 471.25532"><defs><style>.cls-1{fill:#0c3b7c;}.cls-2{fill:#fff;}.cls-3{fill:#00bafc;}</style></defs><circle class="cls-1" cx="235.62766" cy="235.62766" r="235.62766"/><path class="cls-2" d="M220.22188,328.607l-45.80114-.04578V273.796c0-11.7015,4.53906-17.79161,14.55237-19.183h31.249c22.2849,0,36.70053,14.05075,36.70053,36.79169,0,23.357-14.05075,37.17965-36.70053,37.20234ZM174.42074,180.89287V166.47724c0-12.61356,5.33727-18.61251,17.03856-19.388h23.44818c20.09508,0,32.13856,12.02058,32.13856,32.16146,0,15.32788-8.257,33.23337-31.4086,33.23337h-41.2167Zm104.28474,54.65157-8.27973-4.65312,7.2307-6.18148c8.41647-7.2307,22.51281-23.49376,22.51281-51.54949,0-42.973-33.32474-70.68651-84.89693-70.68651H156.42386V102.451h-6.706a28.72793,28.72793,0,0,0-27.69065,28.37521V374.65938h94.40839c57.32032,0,94.31724-31.20339,94.31724-79.53674,0-26.02556-11.95209-48.26487-32.0474-59.5782" transform="translate(-6 -6)"/><path class="cls-3" d="M335.3404,340.97625a33.59109,33.59109,0,1,1,33.53222,33.69627,33.61036,33.61036,0,0,1-33.53222-33.69627" transform="translate(-6 -6)"/></svg>