<?xml version="1.0" encoding="utf-8"?>
<!-- Generator: Adobe Illustrator 24.3.0, SVG Export Plug-In . SVG Version: 6.00 Build 0)  -->
<svg version="1.1" id="Capa_1" xmlns="http://www.w3.org/2000/svg" xmlns:xlink="http://www.w3.org/1999/xlink" x="0px" y="0px"
	 viewBox="0 0 512 512" style="enable-background:new 0 0 512 512;" xml:space="preserve">
<style type="text/css">
	.st0{clip-path:url(#SVGID_2_);}
	.st1{fill:url(#SVGID_3_);}
	.st2{fill:url(#SVGID_4_);}
	.st3{fill:url(#SVGID_5_);}
	.st4{clip-path:url(#SVGID_7_);}
	.st5{fill:url(#SVGID_8_);}
	.st6{fill:url(#SVGID_9_);}
	.st7{fill:url(#SVGID_10_);}
	.st8{clip-path:url(#SVGID_12_);}
	.st9{fill:url(#SVGID_13_);}
	.st10{fill:url(#SVGID_14_);}
	.st11{fill:url(#SVGID_15_);}
	.st12{clip-path:url(#SVGID_17_);}
	.st13{fill:url(#SVGID_18_);}
	.st14{fill:url(#SVGID_19_);}
	.st15{fill:url(#SVGID_20_);}
	.st16{clip-path:url(#SVGID_22_);}
	.st17{fill:url(#SVGID_23_);}
	.st18{fill:url(#SVGID_24_);}
	.st19{fill:url(#SVGID_25_);}
	.st20{clip-path:url(#SVGID_27_);}
	.st21{fill:url(#SVGID_28_);}
	.st22{fill:url(#SVGID_29_);}
	.st23{fill:url(#SVGID_30_);}
	.st24{clip-path:url(#SVGID_32_);}
	.st25{fill:url(#SVGID_33_);}
	.st26{fill:url(#SVGID_34_);}
	.st27{fill:url(#SVGID_35_);}
</style>
<g>
	<defs>
		<path id="SVGID_1_" d="M318.8,65.4V21.6c0-8.1-6.5-14.6-14.6-14.6h-97.5c-8.1,0-14.6,6.5-14.6,14.6v43.8l-49.1,41h225L318.8,65.4z
			"/>
	</defs>
	<clipPath id="SVGID_2_">
		<use xlink:href="#SVGID_1_"  style="overflow:visible;"/>
	</clipPath>
	<g class="st0">
		<linearGradient id="SVGID_3_" gradientUnits="userSpaceOnUse" x1="81.6806" y1="-47.2684" x2="431.0643" y2="557.882">
			<stop  offset="0" style="stop-color:#5C84C5"/>
			<stop  offset="0.5458" style="stop-color:#2E5A99"/>
			<stop  offset="1" style="stop-color:#1A3B71"/>
		</linearGradient>
		<path class="st1" d="M0.6-0.5v511.5h511.5V-0.5H0.6z M199,395.5C90.3,395.5,2.3,307.4,2.3,198.8S90.3,2.1,199,2.1
			s196.7,88.1,196.7,196.7S307.6,395.5,199,395.5z"/>
		<linearGradient id="SVGID_4_" gradientUnits="userSpaceOnUse" x1="63.0928" y1="-36.5367" x2="412.4765" y2="568.6136">
			<stop  offset="0" style="stop-color:#5C84C5"/>
			<stop  offset="0.5458" style="stop-color:#2E5A99"/>
			<stop  offset="1" style="stop-color:#1A3B71"/>
		</linearGradient>
		<circle class="st2" cx="199" cy="198.8" r="196.7"/>
		<linearGradient id="SVGID_5_" gradientUnits="userSpaceOnUse" x1="100.6116" y1="28.4478" x2="297.3331" y2="369.1794">
			<stop  offset="0" style="stop-color:#FFB32C"/>
			<stop  offset="0.3324" style="stop-color:#FF9628"/>
			<stop  offset="1" style="stop-color:#FF5E1F"/>
		</linearGradient>
		<circle class="st3" cx="199" cy="198.8" r="196.7"/>
	</g>
</g>
<g>
	<defs>
		<path id="SVGID_6_" d="M119.1,184.4h272.9c8.1,0,14.6-6.5,14.6-14.6v-19.5c0-8.1-6.5-14.6-14.6-14.6H119.1
			c-8.1,0-14.6,6.5-14.6,14.6v19.5C104.5,177.8,111,184.4,119.1,184.4z"/>
	</defs>
	<clipPath id="SVGID_7_">
		<use xlink:href="#SVGID_6_"  style="overflow:visible;"/>
	</clipPath>
	<g class="st4">
		<linearGradient id="SVGID_8_" gradientUnits="userSpaceOnUse" x1="81.6806" y1="-47.2684" x2="431.0643" y2="557.882">
			<stop  offset="0" style="stop-color:#5C84C5"/>
			<stop  offset="0.5458" style="stop-color:#2E5A99"/>
			<stop  offset="1" style="stop-color:#1A3B71"/>
		</linearGradient>
		<path class="st5" d="M0.6-0.5v511.5h511.5V-0.5H0.6z M199,395.5C90.3,395.5,2.3,307.4,2.3,198.8S90.3,2.1,199,2.1
			s196.7,88.1,196.7,196.7S307.6,395.5,199,395.5z"/>
		<linearGradient id="SVGID_9_" gradientUnits="userSpaceOnUse" x1="63.0928" y1="-36.5367" x2="412.4765" y2="568.6136">
			<stop  offset="0" style="stop-color:#5C84C5"/>
			<stop  offset="0.5458" style="stop-color:#2E5A99"/>
			<stop  offset="1" style="stop-color:#1A3B71"/>
		</linearGradient>
		<circle class="st6" cx="199" cy="198.8" r="196.7"/>
		<linearGradient id="SVGID_10_" gradientUnits="userSpaceOnUse" x1="100.6116" y1="28.4478" x2="297.3331" y2="369.1794">
			<stop  offset="0" style="stop-color:#FFB32C"/>
			<stop  offset="0.3324" style="stop-color:#FF9628"/>
			<stop  offset="1" style="stop-color:#FF5E1F"/>
		</linearGradient>
		<circle class="st7" cx="199" cy="198.8" r="196.7"/>
	</g>
</g>
<g>
	<defs>
		<path id="SVGID_11_" d="M7,364.6v107.2c0,18.8,15.3,34.1,34.1,34.1h82.8V330.5H41.1C22.3,330.5,7,345.8,7,364.6z M65.5,359.8
			c8.1,0,14.6,6.5,14.6,14.6S73.5,389,65.5,389s-14.6-6.5-14.6-14.6S57.4,359.8,65.5,359.8z"/>
	</defs>
	<clipPath id="SVGID_12_">
		<use xlink:href="#SVGID_11_"  style="overflow:visible;"/>
	</clipPath>
	<g class="st8">
		<linearGradient id="SVGID_13_" gradientUnits="userSpaceOnUse" x1="81.6806" y1="-47.2684" x2="431.0643" y2="557.882">
			<stop  offset="0" style="stop-color:#5C84C5"/>
			<stop  offset="0.5458" style="stop-color:#2E5A99"/>
			<stop  offset="1" style="stop-color:#1A3B71"/>
		</linearGradient>
		<path class="st9" d="M0.6-0.5v511.5h511.5V-0.5H0.6z M199,395.5C90.3,395.5,2.3,307.4,2.3,198.8S90.3,2.1,199,2.1
			s196.7,88.1,196.7,196.7S307.6,395.5,199,395.5z"/>
		<linearGradient id="SVGID_14_" gradientUnits="userSpaceOnUse" x1="63.0928" y1="-36.5367" x2="412.4765" y2="568.6136">
			<stop  offset="0" style="stop-color:#5C84C5"/>
			<stop  offset="0.5458" style="stop-color:#2E5A99"/>
			<stop  offset="1" style="stop-color:#1A3B71"/>
		</linearGradient>
		<circle class="st10" cx="199" cy="198.8" r="196.7"/>
		<linearGradient id="SVGID_15_" gradientUnits="userSpaceOnUse" x1="100.6116" y1="28.4478" x2="297.3331" y2="369.1794">
			<stop  offset="0" style="stop-color:#FFB32C"/>
			<stop  offset="0.3324" style="stop-color:#FF9628"/>
			<stop  offset="1" style="stop-color:#FF5E1F"/>
		</linearGradient>
		<circle class="st11" cx="199" cy="198.8" r="196.7"/>
	</g>
</g>
<g>
	<defs>
		<path id="SVGID_16_" d="M469.9,330.5h-82.8v175.4h82.8c18.8,0,34.1-15.3,34.1-34.1V364.6C504,345.8,488.7,330.5,469.9,330.5z
			 M445.5,389c-8.1,0-14.6-6.5-14.6-14.6s6.5-14.6,14.6-14.6c8.1,0,14.6,6.5,14.6,14.6S453.6,389,445.5,389z"/>
	</defs>
	<clipPath id="SVGID_17_">
		<use xlink:href="#SVGID_16_"  style="overflow:visible;"/>
	</clipPath>
	<g class="st12">
		<linearGradient id="SVGID_18_" gradientUnits="userSpaceOnUse" x1="81.6806" y1="-47.2684" x2="431.0643" y2="557.882">
			<stop  offset="0" style="stop-color:#5C84C5"/>
			<stop  offset="0.5458" style="stop-color:#2E5A99"/>
			<stop  offset="1" style="stop-color:#1A3B71"/>
		</linearGradient>
		<path class="st13" d="M0.6-0.5v511.5h511.5V-0.5H0.6z M199,395.5C90.3,395.5,2.3,307.4,2.3,198.8S90.3,2.1,199,2.1
			s196.7,88.1,196.7,196.7S307.6,395.5,199,395.5z"/>
		<linearGradient id="SVGID_19_" gradientUnits="userSpaceOnUse" x1="63.0928" y1="-36.5367" x2="412.4765" y2="568.6136">
			<stop  offset="0" style="stop-color:#5C84C5"/>
			<stop  offset="0.5458" style="stop-color:#2E5A99"/>
			<stop  offset="1" style="stop-color:#1A3B71"/>
		</linearGradient>
		<circle class="st14" cx="199" cy="198.8" r="196.7"/>
		<linearGradient id="SVGID_20_" gradientUnits="userSpaceOnUse" x1="100.6116" y1="28.4478" x2="297.3331" y2="369.1794">
			<stop  offset="0" style="stop-color:#FFB32C"/>
			<stop  offset="0.3324" style="stop-color:#FF9628"/>
			<stop  offset="1" style="stop-color:#FF5E1F"/>
		</linearGradient>
		<circle class="st15" cx="199" cy="198.8" r="196.7"/>
	</g>
</g>
<g>
	<defs>
		<path id="SVGID_21_" d="M211.6,447.5h87.7v58.5h-87.7V447.5z"/>
	</defs>
	<clipPath id="SVGID_22_">
		<use xlink:href="#SVGID_21_"  style="overflow:visible;"/>
	</clipPath>
	<g class="st16">
		<linearGradient id="SVGID_23_" gradientUnits="userSpaceOnUse" x1="81.6806" y1="-47.2684" x2="431.0643" y2="557.882">
			<stop  offset="0" style="stop-color:#5C84C5"/>
			<stop  offset="0.5458" style="stop-color:#2E5A99"/>
			<stop  offset="1" style="stop-color:#1A3B71"/>
		</linearGradient>
		<path class="st17" d="M0.6-0.5v511.5h511.5V-0.5H0.6z M199,395.5C90.3,395.5,2.3,307.4,2.3,198.8S90.3,2.1,199,2.1
			s196.7,88.1,196.7,196.7S307.6,395.5,199,395.5z"/>
		<linearGradient id="SVGID_24_" gradientUnits="userSpaceOnUse" x1="63.0928" y1="-36.5367" x2="412.4765" y2="568.6136">
			<stop  offset="0" style="stop-color:#5C84C5"/>
			<stop  offset="0.5458" style="stop-color:#2E5A99"/>
			<stop  offset="1" style="stop-color:#1A3B71"/>
		</linearGradient>
		<circle class="st18" cx="199" cy="198.8" r="196.7"/>
		<linearGradient id="SVGID_25_" gradientUnits="userSpaceOnUse" x1="100.6116" y1="28.4478" x2="297.3331" y2="369.1794">
			<stop  offset="0" style="stop-color:#FFB32C"/>
			<stop  offset="0.3324" style="stop-color:#FF9628"/>
			<stop  offset="1" style="stop-color:#FF5E1F"/>
		</linearGradient>
		<circle class="st19" cx="199" cy="198.8" r="196.7"/>
	</g>
</g>
<g>
	<defs>
		<path id="SVGID_26_" d="M153.2,505.9h29.2v-73.1c0-8.1,6.5-14.6,14.6-14.6H314c8.1,0,14.6,6.5,14.6,14.6v73.1h29.2V330.5H153.2
			V505.9z M314,359.8c8.1,0,14.6,6.5,14.6,14.6S322,389,314,389c-8.1,0-14.6-6.5-14.6-14.6S305.9,359.8,314,359.8z M255.5,359.8
			c8.1,0,14.6,6.5,14.6,14.6s-6.5,14.6-14.6,14.6c-8.1,0-14.6-6.5-14.6-14.6S247.4,359.8,255.5,359.8z M197,359.8
			c8.1,0,14.6,6.5,14.6,14.6S205.1,389,197,389c-8.1,0-14.6-6.5-14.6-14.6S189,359.8,197,359.8z"/>
	</defs>
	<clipPath id="SVGID_27_">
		<use xlink:href="#SVGID_26_"  style="overflow:visible;"/>
	</clipPath>
	<g class="st20">
		<linearGradient id="SVGID_28_" gradientUnits="userSpaceOnUse" x1="81.6806" y1="-47.2684" x2="431.0643" y2="557.882">
			<stop  offset="0" style="stop-color:#5C84C5"/>
			<stop  offset="0.5458" style="stop-color:#2E5A99"/>
			<stop  offset="1" style="stop-color:#1A3B71"/>
		</linearGradient>
		<path class="st21" d="M0.6-0.5v511.5h511.5V-0.5H0.6z M199,395.5C90.3,395.5,2.3,307.4,2.3,198.8S90.3,2.1,199,2.1
			s196.7,88.1,196.7,196.7S307.6,395.5,199,395.5z"/>
		<linearGradient id="SVGID_29_" gradientUnits="userSpaceOnUse" x1="63.0928" y1="-36.5367" x2="412.4765" y2="568.6136">
			<stop  offset="0" style="stop-color:#5C84C5"/>
			<stop  offset="0.5458" style="stop-color:#2E5A99"/>
			<stop  offset="1" style="stop-color:#1A3B71"/>
		</linearGradient>
		<circle class="st22" cx="199" cy="198.8" r="196.7"/>
		<linearGradient id="SVGID_30_" gradientUnits="userSpaceOnUse" x1="100.6116" y1="28.4478" x2="297.3331" y2="369.1794">
			<stop  offset="0" style="stop-color:#FFB32C"/>
			<stop  offset="0.3324" style="stop-color:#FF9628"/>
			<stop  offset="1" style="stop-color:#FF5E1F"/>
		</linearGradient>
		<circle class="st23" cx="199" cy="198.8" r="196.7"/>
	</g>
</g>
<g>
	<defs>
		<path id="SVGID_31_" d="M343.2,228.2h-14.6v-4.9c0-8.1-6.5-14.6-14.6-14.6H197c-8.1,0-14.6,6.5-14.6,14.6v4.9h-14.6
			c-8.1,0-14.6,6.5-14.6,14.6c0,8.1,6.5,14.6,14.6,14.6h14.6c0,24.2,19.6,43.9,43.9,43.9h58.5c24.2,0,43.9-19.6,43.9-43.9h14.6
			c8.1,0,14.6-6.5,14.6-14.6C357.8,234.8,351.3,228.2,343.2,228.2z"/>
	</defs>
	<clipPath id="SVGID_32_">
		<use xlink:href="#SVGID_31_"  style="overflow:visible;"/>
	</clipPath>
	<g class="st24">
		<linearGradient id="SVGID_33_" gradientUnits="userSpaceOnUse" x1="81.6806" y1="-47.2684" x2="431.0643" y2="557.882">
			<stop  offset="0" style="stop-color:#5C84C5"/>
			<stop  offset="0.5458" style="stop-color:#2E5A99"/>
			<stop  offset="1" style="stop-color:#1A3B71"/>
		</linearGradient>
		<path class="st25" d="M0.6-0.5v511.5h511.5V-0.5H0.6z M199,395.5C90.3,395.5,2.3,307.4,2.3,198.8S90.3,2.1,199,2.1
			s196.7,88.1,196.7,196.7S307.6,395.5,199,395.5z"/>
		<linearGradient id="SVGID_34_" gradientUnits="userSpaceOnUse" x1="63.0928" y1="-36.5367" x2="412.4765" y2="568.6136">
			<stop  offset="0" style="stop-color:#5C84C5"/>
			<stop  offset="0.5458" style="stop-color:#2E5A99"/>
			<stop  offset="1" style="stop-color:#1A3B71"/>
		</linearGradient>
		<circle class="st26" cx="199" cy="198.8" r="196.7"/>
		<linearGradient id="SVGID_35_" gradientUnits="userSpaceOnUse" x1="100.6116" y1="28.4478" x2="297.3331" y2="369.1794">
			<stop  offset="0" style="stop-color:#FFB32C"/>
			<stop  offset="0.3324" style="stop-color:#FF9628"/>
			<stop  offset="1" style="stop-color:#FF5E1F"/>
		</linearGradient>
		<circle class="st27" cx="199" cy="198.8" r="196.7"/>
	</g>
</g>
</svg>
