<?xml version="1.0" encoding="utf-8"?>
<!-- Generator: Adobe Illustrator 24.3.0, SVG Export Plug-In . SVG Version: 6.00 Build 0)  -->
<svg version="1.1" id="Layer_1_1_" xmlns="http://www.w3.org/2000/svg" xmlns:xlink="http://www.w3.org/1999/xlink" x="0px" y="0px"
	 viewBox="0 0 512 512" style="enable-background:new 0 0 512 512;" xml:space="preserve">
<style type="text/css">
	.st0{clip-path:url(#SVGID_2_);}
	.st1{fill:url(#SVGID_3_);}
	.st2{fill:url(#SVGID_4_);}
	.st3{clip-path:url(#SVGID_6_);}
	.st4{fill:url(#SVGID_7_);}
	.st5{fill:url(#SVGID_8_);}
	.st6{clip-path:url(#SVGID_10_);}
	.st7{fill:url(#SVGID_11_);}
	.st8{fill:url(#SVGID_12_);}
	.st9{clip-path:url(#SVGID_14_);}
	.st10{fill:url(#SVGID_15_);}
	.st11{fill:url(#SVGID_16_);}
	.st12{clip-path:url(#SVGID_18_);}
	.st13{fill:url(#SVGID_19_);}
	.st14{fill:url(#SVGID_20_);}
	.st15{clip-path:url(#SVGID_22_);}
	.st16{fill:url(#SVGID_23_);}
	.st17{fill:url(#SVGID_24_);}
	.st18{clip-path:url(#SVGID_26_);}
	.st19{fill:url(#SVGID_27_);}
	.st20{fill:url(#SVGID_28_);}
</style>
<g>
	<g>
		<defs>
			<path id="SVGID_1_" d="M433.1,14.9H80.7c-13.3,0-24,10.8-24,24v88.1h400.5V39C457.2,25.7,446.4,14.9,433.1,14.9z M192.9,88.6
				c0,4.4-3.6,8-8,8H96.7c-4.4,0-8-3.6-8-8V63c0-4.4,3.6-8,8-8h88.1c4.4,0,8,3.6,8,8V88.6z M305,103c-13.3,0-24-10.8-24-24
				s10.8-24,24-24s24,10.8,24,24S318.3,103,305,103z M369.1,103h-16V87h16V103z M369.1,71h-16V55h16V71z M401.1,103h-16V87h16V103z
				 M401.1,71h-16V55h16V71z M433.1,103h-16V87h16V103z M433.1,71h-16V55h16V71z"/>
		</defs>
		<clipPath id="SVGID_2_">
			<use xlink:href="#SVGID_1_"  style="overflow:visible;"/>
		</clipPath>
		<g class="st0">
			<linearGradient id="SVGID_3_" gradientUnits="userSpaceOnUse" x1="83.5906" y1="-49.3511" x2="435.2725" y2="559.7797">
				<stop  offset="0" style="stop-color:#5C84C5"/>
				<stop  offset="0.5458" style="stop-color:#2E5A99"/>
				<stop  offset="1" style="stop-color:#1A3B71"/>
			</linearGradient>
			<path class="st1" d="M2-2.2v514.9h514.9V-2.2H2z M201.7,396.3c-109.3,0-198-88.6-198-198s88.6-198,198-198s198,88.6,198,198
				S311,396.3,201.7,396.3z"/>
			<linearGradient id="SVGID_4_" gradientUnits="userSpaceOnUse" x1="102.6462" y1="26.8632" x2="300.6616" y2="369.8359">
				<stop  offset="0" style="stop-color:#FFB32C"/>
				<stop  offset="0.3324" style="stop-color:#FF9628"/>
				<stop  offset="1" style="stop-color:#FF5E1F"/>
			</linearGradient>
			<circle class="st2" cx="201.7" cy="198.3" r="198"/>
		</g>
	</g>
	<g>
		<defs>
			<path id="SVGID_5_" d="M324.8,268.7c-13.4-21.3-35.8-35.1-60.8-37.2c-4-0.4-7.1-3.9-7.1-7.9c0-4.7,4.1-8.4,8.8-8
				c29.8,2.7,56.4,19,72.4,44.3c2.5,4,1.1,9.4-3.1,11.5C331.5,273.3,327,272.2,324.8,268.7z"/>
		</defs>
		<clipPath id="SVGID_6_">
			<use xlink:href="#SVGID_5_"  style="overflow:visible;"/>
		</clipPath>
		<g class="st3">
			<linearGradient id="SVGID_7_" gradientUnits="userSpaceOnUse" x1="83.5906" y1="-49.3511" x2="435.2725" y2="559.7797">
				<stop  offset="0" style="stop-color:#5C84C5"/>
				<stop  offset="0.5458" style="stop-color:#2E5A99"/>
				<stop  offset="1" style="stop-color:#1A3B71"/>
			</linearGradient>
			<path class="st4" d="M2-2.2v514.9h514.9V-2.2H2z M201.7,396.3c-109.3,0-198-88.6-198-198s88.6-198,198-198s198,88.6,198,198
				S311,396.3,201.7,396.3z"/>
			<linearGradient id="SVGID_8_" gradientUnits="userSpaceOnUse" x1="102.6462" y1="26.8632" x2="300.6616" y2="369.8359">
				<stop  offset="0" style="stop-color:#FFB32C"/>
				<stop  offset="0.3324" style="stop-color:#FF9628"/>
				<stop  offset="1" style="stop-color:#FF5E1F"/>
			</linearGradient>
			<circle class="st5" cx="201.7" cy="198.3" r="198"/>
		</g>
	</g>
	<g>
		<defs>
			<path id="SVGID_9_" d="M341.8,322.6c-29.6,0-29.6,41.5-59.3,41.5c-29.6,0-29.6-41.5-59.3-41.5c-25.3,0-29.1,30.2-48.1,39
				c16.9,27.5,47.2,45.8,81.8,45.8c48.5,0,88.5-36,95.1-82.7C349,323.5,345.7,322.6,341.8,322.6L341.8,322.6z"/>
		</defs>
		<clipPath id="SVGID_10_">
			<use xlink:href="#SVGID_9_"  style="overflow:visible;"/>
		</clipPath>
		<g class="st6">
			<linearGradient id="SVGID_11_" gradientUnits="userSpaceOnUse" x1="83.5906" y1="-49.3511" x2="435.2725" y2="559.7797">
				<stop  offset="0" style="stop-color:#5C84C5"/>
				<stop  offset="0.5458" style="stop-color:#2E5A99"/>
				<stop  offset="1" style="stop-color:#1A3B71"/>
			</linearGradient>
			<path class="st7" d="M2-2.2v514.9h514.9V-2.2H2z M201.7,396.3c-109.3,0-198-88.6-198-198s88.6-198,198-198s198,88.6,198,198
				S311,396.3,201.7,396.3z"/>
			<linearGradient id="SVGID_12_" gradientUnits="userSpaceOnUse" x1="102.6462" y1="26.8632" x2="300.6616" y2="369.8359">
				<stop  offset="0" style="stop-color:#FFB32C"/>
				<stop  offset="0.3324" style="stop-color:#FF9628"/>
				<stop  offset="1" style="stop-color:#FF5E1F"/>
			</linearGradient>
			<circle class="st8" cx="201.7" cy="198.3" r="198"/>
		</g>
	</g>
	<g>
		<defs>
			<circle id="SVGID_13_" cx="176.8" cy="279.2" r="8"/>
		</defs>
		<clipPath id="SVGID_14_">
			<use xlink:href="#SVGID_13_"  style="overflow:visible;"/>
		</clipPath>
		<g class="st9">
			<linearGradient id="SVGID_15_" gradientUnits="userSpaceOnUse" x1="83.5906" y1="-49.3511" x2="435.2725" y2="559.7797">
				<stop  offset="0" style="stop-color:#5C84C5"/>
				<stop  offset="0.5458" style="stop-color:#2E5A99"/>
				<stop  offset="1" style="stop-color:#1A3B71"/>
			</linearGradient>
			<path class="st10" d="M2-2.2v514.9h514.9V-2.2H2z M201.7,396.3c-109.3,0-198-88.6-198-198s88.6-198,198-198s198,88.6,198,198
				S311,396.3,201.7,396.3z"/>
			<linearGradient id="SVGID_16_" gradientUnits="userSpaceOnUse" x1="102.6462" y1="26.8632" x2="300.6616" y2="369.8359">
				<stop  offset="0" style="stop-color:#FFB32C"/>
				<stop  offset="0.3324" style="stop-color:#FF9628"/>
				<stop  offset="1" style="stop-color:#FF5E1F"/>
			</linearGradient>
			<circle class="st11" cx="201.7" cy="198.3" r="198"/>
		</g>
	</g>
	<g>
		<defs>
			<circle id="SVGID_17_" cx="200.9" cy="303.3" r="16"/>
		</defs>
		<clipPath id="SVGID_18_">
			<use xlink:href="#SVGID_17_"  style="overflow:visible;"/>
		</clipPath>
		<g class="st12">
			<linearGradient id="SVGID_19_" gradientUnits="userSpaceOnUse" x1="83.5906" y1="-49.3511" x2="435.2725" y2="559.7797">
				<stop  offset="0" style="stop-color:#5C84C5"/>
				<stop  offset="0.5458" style="stop-color:#2E5A99"/>
				<stop  offset="1" style="stop-color:#1A3B71"/>
			</linearGradient>
			<path class="st13" d="M2-2.2v514.9h514.9V-2.2H2z M201.7,396.3c-109.3,0-198-88.6-198-198s88.6-198,198-198s198,88.6,198,198
				S311,396.3,201.7,396.3z"/>
			<linearGradient id="SVGID_20_" gradientUnits="userSpaceOnUse" x1="102.6462" y1="26.8632" x2="300.6616" y2="369.8359">
				<stop  offset="0" style="stop-color:#FFB32C"/>
				<stop  offset="0.3324" style="stop-color:#FF9628"/>
				<stop  offset="1" style="stop-color:#FF5E1F"/>
			</linearGradient>
			<circle class="st14" cx="201.7" cy="198.3" r="198"/>
		</g>
	</g>
	<g>
		<defs>
			<path id="SVGID_21_" d="M56.7,143.1v328.4c0,13.3,10.8,24,24,24h352.4c13.3,0,24-10.8,24-24V143.1H56.7z M256.9,463.5
				c-79.6,0-144.2-64.5-144.2-144.2s64.5-144.2,144.2-144.2s144.2,64.5,144.2,144.2S336.6,463.5,256.9,463.5z"/>
		</defs>
		<clipPath id="SVGID_22_">
			<use xlink:href="#SVGID_21_"  style="overflow:visible;"/>
		</clipPath>
		<g class="st15">
			<linearGradient id="SVGID_23_" gradientUnits="userSpaceOnUse" x1="83.5906" y1="-49.3511" x2="435.2725" y2="559.7797">
				<stop  offset="0" style="stop-color:#5C84C5"/>
				<stop  offset="0.5458" style="stop-color:#2E5A99"/>
				<stop  offset="1" style="stop-color:#1A3B71"/>
			</linearGradient>
			<path class="st16" d="M2-2.2v514.9h514.9V-2.2H2z M201.7,396.3c-109.3,0-198-88.6-198-198s88.6-198,198-198s198,88.6,198,198
				S311,396.3,201.7,396.3z"/>
			<linearGradient id="SVGID_24_" gradientUnits="userSpaceOnUse" x1="102.6462" y1="26.8632" x2="300.6616" y2="369.8359">
				<stop  offset="0" style="stop-color:#FFB32C"/>
				<stop  offset="0.3324" style="stop-color:#FF9628"/>
				<stop  offset="1" style="stop-color:#FF5E1F"/>
			</linearGradient>
			<circle class="st17" cx="201.7" cy="198.3" r="198"/>
		</g>
	</g>
	<g>
		<defs>
			<path id="SVGID_25_" d="M256.9,191.1c-70.8,0-128.2,57.4-128.2,128.2s57.4,128.2,128.2,128.2c70.8,0,128.2-57.4,128.2-128.2
				S327.7,191.1,256.9,191.1z M256.9,431.4c-61.9,0-112.1-50.2-112.1-112.1S195,207.2,256.9,207.2s112.1,50.2,112.1,112.1
				S318.9,431.4,256.9,431.4z"/>
		</defs>
		<clipPath id="SVGID_26_">
			<use xlink:href="#SVGID_25_"  style="overflow:visible;"/>
		</clipPath>
		<g class="st18">
			<linearGradient id="SVGID_27_" gradientUnits="userSpaceOnUse" x1="83.5906" y1="-49.3511" x2="435.2725" y2="559.7797">
				<stop  offset="0" style="stop-color:#5C84C5"/>
				<stop  offset="0.5458" style="stop-color:#2E5A99"/>
				<stop  offset="1" style="stop-color:#1A3B71"/>
			</linearGradient>
			<path class="st19" d="M2-2.2v514.9h514.9V-2.2H2z M201.7,396.3c-109.3,0-198-88.6-198-198s88.6-198,198-198s198,88.6,198,198
				S311,396.3,201.7,396.3z"/>
			<linearGradient id="SVGID_28_" gradientUnits="userSpaceOnUse" x1="102.6462" y1="26.8632" x2="300.6616" y2="369.8359">
				<stop  offset="0" style="stop-color:#FFB32C"/>
				<stop  offset="0.3324" style="stop-color:#FF9628"/>
				<stop  offset="1" style="stop-color:#FF5E1F"/>
			</linearGradient>
			<circle class="st20" cx="201.7" cy="198.3" r="198"/>
		</g>
	</g>
</g>
</svg>
