<svg id="Capa_1" data-name="Capa 1" xmlns="http://www.w3.org/2000/svg" xmlns:xlink="http://www.w3.org/1999/xlink" viewBox="0 0 1031.28469 122.03788"><defs><style>.cls-1{font-size:64.15768px;fill:#fff;font-family:Montserrat-Light, Montserrat;font-weight:300;}.cls-2{letter-spacing:-0.00999em;}.cls-3{letter-spacing:-0.03499em;}.cls-4,.cls-5,.cls-6,.cls-7{font-family:Montserrat-SemiBold, Montserrat;font-weight:600;}.cls-5{letter-spacing:-0.01em;}.cls-6{letter-spacing:-0.042em;}.cls-7{letter-spacing:-0.01501em;}.cls-8,.cls-9{font-family:Montserrat-ExtraBold, Montserrat;font-weight:800;}.cls-9{letter-spacing:-0.01199em;}.cls-10{fill:url(#Degradado_sin_nombre_15);}.cls-11{fill:url(#Degradado_sin_nombre_32);}</style><linearGradient id="Degradado_sin_nombre_15" x1="82.44683" y1="92.7811" x2="82.44683" y2="22.86404" gradientUnits="userSpaceOnUse"><stop offset="0" stop-color="#ffb32c"/><stop offset="0.33243" stop-color="#ff9628"/><stop offset="1" stop-color="#ff5e1f"/></linearGradient><linearGradient id="Degradado_sin_nombre_32" x1="82.44683" y1="96.2438" x2="82.44683" y2="144.90192" gradientUnits="userSpaceOnUse"><stop offset="0" stop-color="#5c84c5"/><stop offset="0.0198" stop-color="#557dbe"/><stop offset="0.0807" stop-color="#436dad"/><stop offset="0.15524" stop-color="#3762a2"/><stop offset="0.25702" stop-color="#305c9b"/><stop offset="0.51006" stop-color="#2e5a99"/><stop offset="1" stop-color="#1a3b71"/></linearGradient></defs><text class="cls-1" transform="translate(136.4844 74.37069)">HO<tspan class="cls-2" x="105.98779" y="0">S</tspan><tspan class="cls-3" x="144.41846" y="0">T</tspan><tspan x="178.29346" y="0">AL</tspan><tspan class="cls-4" x="261.05566" y="0">SUNN</tspan><tspan class="cls-5" x="455.96533" y="0">YD</tspan><tspan class="cls-6" x="550.08447" y="0">A</tspan><tspan class="cls-7" x="595.44385" y="0">Y</tspan><tspan class="cls-4" x="636.88916" y="0">S</tspan><tspan class="cls-8" x="677.24463" y="0">ARI</tspan><tspan class="cls-9" x="796.89697" y="0">C</tspan><tspan class="cls-8" x="843.4751" y="0">A</tspan></text><path class="cls-10" d="M133.31538,92.7811H31.57819a5.804,5.804,0,0,1-5.74395-4.98024,57.65581,57.65581,0,0,1-.53006-7.79417,57.14266,57.14266,0,0,1,114.28531,0,57.689,57.689,0,0,1-.53,7.79417A5.8042,5.8042,0,0,1,133.31538,92.7811ZM82.44683,24.84538A55.189,55.189,0,0,0,27.7972,87.5323a3.81533,3.81533,0,0,0,3.781,3.26747H133.31538a3.81535,3.81535,0,0,0,3.78108-3.26747A55.189,55.189,0,0,0,82.44683,24.84538Z" transform="translate(-25.30418 -22.86404)"/><path class="cls-11" d="M95.27493,144.90192H62.49433a3.72246,3.72246,0,0,1,0-7.44492H74.10441a.39888.39888,0,0,0-.00029-.79776H59.35785a3.72237,3.72237,0,0,1,0-7.44473h7.00637a.399.399,0,1,0,0-.79795H43.08988a3.72236,3.72236,0,1,1,0-7.44472H58.36747a.399.399,0,0,0-.00029-.798h-24.383a3.72236,3.72236,0,1,1,0-7.44472H75.01052a.399.399,0,0,0-.00009-.798H38.43577a3.72237,3.72237,0,0,1,0-7.44473h10.1681a.39888.39888,0,1,0,0-.79776H29.02654a3.72246,3.72246,0,0,1,0-7.44492H135.86712a3.72246,3.72246,0,0,1,0,7.44492h-16.795a.39888.39888,0,1,0,0,.79776h9.40923a3.72237,3.72237,0,0,1,0,7.44473H84.77355a.399.399,0,0,0,.00029.798h20.03261a3.72236,3.72236,0,0,1,0,7.44472H68.1306a.399.399,0,0,0,0,.798h53.67318a3.72236,3.72236,0,0,1,0,7.44472H106.4039a.399.399,0,0,0,.00029.79795h6.17166a3.72237,3.72237,0,0,1,0,7.44473H83.86743a.39888.39888,0,0,0-.00019.79776H95.27493a3.72246,3.72246,0,0,1,0,7.44492Zm-32.7806-5.46358a1.74112,1.74112,0,0,0,0,3.48224h32.7806a1.74112,1.74112,0,0,0,0-3.48224H83.86724a2.38022,2.38022,0,0,1,.00019-4.76044h28.70842a1.741,1.741,0,0,0,0-3.482h-6.17166a2.38032,2.38032,0,0,1-.00058-4.76063h15.40017a1.741,1.741,0,0,0,0-3.482H68.13031a2.38032,2.38032,0,0,1,.00029-4.76064h36.67585a1.741,1.741,0,0,0,0-3.482H84.77384a2.38032,2.38032,0,0,1-.00058-4.76063h43.70806a1.741,1.741,0,0,0,0-3.48205h-9.40923a2.38022,2.38022,0,1,1,0-4.76044h16.795a1.74112,1.74112,0,0,0,0-3.48224H29.02654a1.74112,1.74112,0,0,0,0,3.48224H48.60387a2.38022,2.38022,0,1,1,0,4.76044H38.43577a1.741,1.741,0,1,0,0,3.48205h36.575a2.38032,2.38032,0,0,1-.0002,4.76063H33.98414a1.741,1.741,0,1,0,0,3.482h24.383a2.38032,2.38032,0,0,1,.00058,4.76064H43.08988a1.741,1.741,0,1,0,0,3.482H66.36451a2.38032,2.38032,0,0,1-.00029,4.76063H59.35785a1.741,1.741,0,0,0,0,3.482H74.10412a2.38022,2.38022,0,0,1,.00029,4.76044Zm34.14645-8.24249H76.12764a2.38032,2.38032,0,0,1-.00058-4.76063h20.514a2.38032,2.38032,0,0,1-.00029,4.76063Zm-20.51343-2.77929a.399.399,0,0,0,.00029.79795H96.64078a.399.399,0,1,0,0-.79795Zm33.18132-21.94874H58.36718a2.38022,2.38022,0,1,1,0-4.76044h50.94149a2.38022,2.38022,0,1,1,0,4.76044Zm-50.94149-2.7791a.39888.39888,0,1,0,0,.79776h50.94149a.39888.39888,0,1,0,0-.79776Z" transform="translate(-25.30418 -22.86404)"/></svg>