<?xml version="1.0" encoding="utf-8"?>
<!-- Generator: Adobe Illustrator 24.3.0, SVG Export Plug-In . SVG Version: 6.00 Build 0)  -->
<svg version="1.1" id="Capa_1" xmlns="http://www.w3.org/2000/svg" xmlns:xlink="http://www.w3.org/1999/xlink" x="0px" y="0px"
	 viewBox="0 0 512 512" style="enable-background:new 0 0 512 512;" xml:space="preserve">
<style type="text/css">
	.st0{clip-path:url(#SVGID_2_);}
	.st1{fill:url(#SVGID_3_);}
	.st2{fill:url(#SVGID_4_);}
	.st3{clip-path:url(#SVGID_6_);}
	.st4{fill:url(#SVGID_7_);}
	.st5{fill:url(#SVGID_8_);}
</style>
<g>
	<defs>
		<path id="SVGID_1_" d="M439.7,255.9h-45.3v-19.5c0-23-19.8-41.8-42.8-41.8H284c-23,0-40.6,18.8-40.6,41.8v19.5h-47.5
			c-24,0-44.5,19.3-44.5,43.3v140.1c0,24,20.5,43,44.5,43h243.7c24,0,44.3-19,44.3-43V299.2C484,275.2,463.7,255.9,439.7,255.9z
			 M238.5,429.6c-10.6,0-19.1-8.6-19.1-19.1c0-10.6,8.6-19.1,19.1-19.1s19.1,8.6,19.1,19.1C257.6,421,249,429.6,238.5,429.6z
			 M258.2,314.8l-20.7,19.4c-1.4,1.3-3.4,1.6-5.1,0.8c-1.7-0.8-2.8-2.5-2.7-4.4l0.5-15c0.2-5.3,4.6-9.5,10-9.3l15,0.5
			c1.9,0.1,3.5,1.2,4.2,3C260,311.6,259.6,313.6,258.2,314.8z M282.5,371.8l-3.8-20.5c-0.8-4.5,2.2-8.9,6.7-9.8l33-6.2
			c2.2-0.4,4.4,0.1,6.3,1.3c1.8,1.3,3.1,3.2,3.5,5.4l3.8,20.5c0.4,2.2-0.1,4.4-1.3,6.3c-1.3,1.8-3.2,3.1-5.4,3.5l-32.9,6.2
			C287.8,379.3,283.4,376.3,282.5,371.8z M318.8,448.7c-8.3,0-15.1-6.8-15.1-15.1c0-8.3,6.7-15.1,15.1-15.1
			c8.3,0,15.1,6.7,15.1,15.1C333.9,441.9,327.1,448.7,318.8,448.7z M363.7,255.9h-92v-19.5c0-7.1,5.2-13.5,12.3-13.5h67.6
			c7.1,0,12.1,6.3,12.1,13.5L363.7,255.9L363.7,255.9z M419,402.6l-13.4,15.9c-3,3.6-8.3,4-11.8,1l-25.6-21.6c-3.6-3-4-8.3-1-11.8
			l13.4-15.9c3-3.5,8.3-4,11.8-1l25.6,21.6c1.7,1.4,2.8,3.5,2.9,5.7C421.2,398.7,420.5,400.9,419,402.6z M408.1,330.7
			c-7.4,0-13.4-6-13.4-13.4c0-7.4,6-13.4,13.4-13.4c7.4,0,13.4,6,13.4,13.4C421.5,324.7,415.5,330.7,408.1,330.7z"/>
	</defs>
	<clipPath id="SVGID_2_">
		<use xlink:href="#SVGID_1_"  style="overflow:visible;"/>
	</clipPath>
	<g class="st0">
		<g>
			<linearGradient id="SVGID_3_" gradientUnits="userSpaceOnUse" x1="95.6613" y1="-32.5532" x2="423.5074" y2="535.2928">
				<stop  offset="0" style="stop-color:#5C84C5"/>
				<stop  offset="0.5458" style="stop-color:#2E5A99"/>
				<stop  offset="1" style="stop-color:#1A3B71"/>
			</linearGradient>
			<path class="st1" d="M19.6,11.4v480h480v-480H19.6z M205.7,382.9c-101.9,0-184.6-82.6-184.6-184.6S103.8,13.8,205.7,13.8
				s184.6,82.6,184.6,184.6S307.7,382.9,205.7,382.9z"/>
		</g>
		<linearGradient id="SVGID_4_" gradientUnits="userSpaceOnUse" x1="113.4253" y1="38.4955" x2="298.0199" y2="358.2228">
			<stop  offset="0" style="stop-color:#FFB32C"/>
			<stop  offset="0.3324" style="stop-color:#FF9628"/>
			<stop  offset="1" style="stop-color:#FF5E1F"/>
		</linearGradient>
		<circle class="st2" cx="205.7" cy="198.4" r="184.6"/>
	</g>
</g>
<g>
	<defs>
		<path id="SVGID_5_" d="M304.8,154c29.4-29.4,30-76.5,0.6-105.9c-29.4-29.4-76.5-28.8-105.9,0.6c-20.3,20.3-26.2,49.7-18.4,75.5
			l-12.6,12.6c-1.4,1.4-2.8,2.6-3.2,4.5l-5.4,24c-0.6,3-3.1,5.2-6.1,5.8l-22.5,4.8c-2.9,0.6-5.3,2.9-6,5.8l-5.5,23.2
			c-0.7,3.1-3.1,5.5-6.2,6.2l-23.5,5.9c-3.2,0.8-5.6,3.3-6.4,6.4l-3.7,15.7c-0.6,2.6-2.8,4.7-5.4,5.2l-16.6,3.9
			c-1.7,0.3-2.7,1.6-3.9,2.8l-14.6,14.6c-14.5,14.5-15.7,36.7-1.2,51.2c13.4,13.4,33.8,12.2,47.2-1.2l143.5-143.5
			C255,180.1,284.5,174.3,304.8,154z M249.5,69.9c9.5-9.5,24.9-9.5,34.4,0c9.5,9.5,9.5,24.9,0,34.4c-9.5,9.5-24.9,9.5-34.4,0
			C240,94.8,240,79.4,249.5,69.9z"/>
	</defs>
	<clipPath id="SVGID_6_">
		<use xlink:href="#SVGID_5_"  style="overflow:visible;"/>
	</clipPath>
	<g class="st3">
		<linearGradient id="SVGID_7_" gradientUnits="userSpaceOnUse" x1="95.6613" y1="-32.5532" x2="423.5074" y2="535.2928">
			<stop  offset="0" style="stop-color:#5C84C5"/>
			<stop  offset="0.5458" style="stop-color:#2E5A99"/>
			<stop  offset="1" style="stop-color:#1A3B71"/>
		</linearGradient>
		<path class="st4" d="M19.6,11.4v480h480v-480H19.6z M205.7,382.9c-101.9,0-184.6-82.6-184.6-184.6S103.8,13.8,205.7,13.8
			s184.6,82.6,184.6,184.6S307.7,382.9,205.7,382.9z"/>
		<linearGradient id="SVGID_8_" gradientUnits="userSpaceOnUse" x1="113.4253" y1="38.4955" x2="298.0199" y2="358.2228">
			<stop  offset="0" style="stop-color:#FFB32C"/>
			<stop  offset="0.3324" style="stop-color:#FF9628"/>
			<stop  offset="1" style="stop-color:#FF5E1F"/>
		</linearGradient>
		<circle class="st5" cx="205.7" cy="198.4" r="184.6"/>
	</g>
</g>
</svg>
