<?xml version="1.0" encoding="utf-8"?>
<!-- Generator: Adobe Illustrator 24.3.0, SVG Export Plug-In . SVG Version: 6.00 Build 0)  -->
<svg version="1.1" id="Capa_1" xmlns="http://www.w3.org/2000/svg" xmlns:xlink="http://www.w3.org/1999/xlink" x="0px" y="0px"
	 viewBox="0 0 272.5 272.5" style="enable-background:new 0 0 272.5 272.5;" xml:space="preserve">
<style type="text/css">
	.st0{clip-path:url(#SVGID_2_);}
	.st1{fill:url(#SVGID_3_);}
	.st2{fill:url(#SVGID_4_);}
	.st3{clip-path:url(#SVGID_6_);}
	.st4{fill:url(#SVGID_7_);}
	.st5{fill:url(#SVGID_8_);}
	.st6{clip-path:url(#SVGID_10_);}
	.st7{fill:url(#SVGID_11_);}
	.st8{fill:url(#SVGID_12_);}
</style>
<g>
	<defs>
		<path id="SVGID_1_" d="M191.5,121.7c-0.8,0-1.7,0.1-2.5,0.4l-9.6,2.6l-9.9-24.2c-2.8-6.9-11.1-12.4-18.5-12.4H58.1
			c-7.4,0-15.7,5.6-18.5,12.4l-9.9,24.1l-9.4-2.6c-0.8-0.2-1.7-0.4-2.5-0.4c-4.5,0-7.8,3.5-7.8,8.2v5.6c0,5.6,4.5,10.1,10.1,10.1H21
			l-1.6,3.9c-2.6,6.4-4.7,17.1-4.7,24v48c0,5.6,4.5,10.1,10.1,10.1h13.1c5.6,0,10.1-4.5,10.1-10.1v-12h113.1v12
			c0,5.6,4.5,10.1,10.1,10.1h13.1c5.6,0,10.1-4.5,10.1-10.1v-48c0-6.9-2.1-17.7-4.7-24l-1.6-3.9h1.2c5.6,0,10.1-4.5,10.1-10.1v-5.6
			C199.3,125.2,196,121.7,191.5,121.7z M36.8,140.2l15-36.6c1.7-4.1,6.7-7.5,11.1-7.5h83.1c4.4,0,9.4,3.4,11.1,7.5l15,36.6
			c1.7,4.1-0.6,7.5-5,7.5H41.8C37.4,147.6,35.2,144.3,36.8,140.2z M70.4,186.4c0,2.2-1.8,4-4,4H37.8c-2.2,0-4-1.8-4-4v-13.7
			c0-2.2,1.8-4,4-4h28.5c2.2,0,4,1.8,4,4V186.4z M175,186.4c0,2.2-1.8,4-4,4h-28.5c-2.2,0-4-1.8-4-4v-13.7c0-2.2,1.8-4,4-4H171
			c2.2,0,4,1.8,4,4V186.4z"/>
	</defs>
	<clipPath id="SVGID_2_">
		<use xlink:href="#SVGID_1_"  style="overflow:visible;"/>
	</clipPath>
	<g class="st0">
		<linearGradient id="SVGID_3_" gradientUnits="userSpaceOnUse" x1="39.2301" y1="-33.4347" x2="233.9672" y2="303.8599">
			<stop  offset="0" style="stop-color:#5C84C5"/>
			<stop  offset="0.5458" style="stop-color:#2E5A99"/>
			<stop  offset="1" style="stop-color:#1A3B71"/>
		</linearGradient>
		<path class="st1" d="M-6-7.3v285.1h285.1V-7.3H-6z M104.6,213.4C44.1,213.4-5,164.3-5,103.7S44.1-5.9,104.6-5.9
			s109.6,49.1,109.6,109.6S165.2,213.4,104.6,213.4z"/>
		<linearGradient id="SVGID_4_" gradientUnits="userSpaceOnUse" x1="49.7817" y1="8.7675" x2="159.429" y2="198.6821">
			<stop  offset="0" style="stop-color:#FFB32C"/>
			<stop  offset="0.3324" style="stop-color:#FF9628"/>
			<stop  offset="1" style="stop-color:#FF5E1F"/>
		</linearGradient>
		<circle class="st2" cx="104.6" cy="103.7" r="109.6"/>
	</g>
</g>
<g>
	<defs>
		<path id="SVGID_5_" d="M253.4,46h-47.7c-6.9,0-12.6,5.6-12.6,12.6v47.7c0,6.9,5.6,12.6,12.6,12.6h19.1v107c0,2.6,2.1,4.7,4.7,4.7
			c2.6,0,4.7-2.1,4.7-4.7v-107h19.1c6.9,0,12.6-5.6,12.6-12.6V58.6C266,51.6,260.4,46,253.4,46z M242.6,85.5
			c-2.7,2.5-6.8,3.7-12,3.7h-6.9c-0.8,0-1.5,0.7-1.5,1.5v11.6c0,1.3-1,2.3-2.3,2.3h-5.2c-1.3,0-2.3-1-2.3-2.3V62.5
			c0-1.3,1-2.3,2.3-2.3h13.2c8.7,0,12,1.3,14.7,3.6c2.8,2.4,4.3,6.1,4.3,10.9C246.8,79.4,245.4,83,242.6,85.5z"/>
	</defs>
	<clipPath id="SVGID_6_">
		<use xlink:href="#SVGID_5_"  style="overflow:visible;"/>
	</clipPath>
	<g class="st3">
		<linearGradient id="SVGID_7_" gradientUnits="userSpaceOnUse" x1="39.2301" y1="-33.4347" x2="233.9672" y2="303.8599">
			<stop  offset="0" style="stop-color:#5C84C5"/>
			<stop  offset="0.5458" style="stop-color:#2E5A99"/>
			<stop  offset="1" style="stop-color:#1A3B71"/>
		</linearGradient>
		<path class="st4" d="M-6-7.3v285.1h285.1V-7.3H-6z M104.6,213.4C44.1,213.4-5,164.3-5,103.7S44.1-5.9,104.6-5.9
			s109.6,49.1,109.6,109.6S165.2,213.4,104.6,213.4z"/>
		<linearGradient id="SVGID_8_" gradientUnits="userSpaceOnUse" x1="49.7817" y1="8.7675" x2="159.429" y2="198.6821">
			<stop  offset="0" style="stop-color:#FFB32C"/>
			<stop  offset="0.3324" style="stop-color:#FF9628"/>
			<stop  offset="1" style="stop-color:#FF5E1F"/>
		</linearGradient>
		<circle class="st5" cx="104.6" cy="103.7" r="109.6"/>
	</g>
</g>
<g>
	<defs>
		<path id="SVGID_9_" d="M235.1,69.8c-1.3-1-3.5-1.5-6.7-1.5h-4.7c-0.8,0-1.5,0.7-1.5,1.5v9.6c0,0.8,0.7,1.5,1.5,1.5h2.8
			c1,0,2.7-0.1,3.8-0.2c1-0.1,3.8-0.5,4.8-1.3c1.2-0.9,1.9-2.6,1.9-4.8C237,72.4,236.4,70.7,235.1,69.8z"/>
	</defs>
	<clipPath id="SVGID_10_">
		<use xlink:href="#SVGID_9_"  style="overflow:visible;"/>
	</clipPath>
	<g class="st6">
		<linearGradient id="SVGID_11_" gradientUnits="userSpaceOnUse" x1="39.2301" y1="-33.4347" x2="233.9672" y2="303.8599">
			<stop  offset="0" style="stop-color:#5C84C5"/>
			<stop  offset="0.5458" style="stop-color:#2E5A99"/>
			<stop  offset="1" style="stop-color:#1A3B71"/>
		</linearGradient>
		<path class="st7" d="M-6-7.3v285.1h285.1V-7.3H-6z M104.6,213.4C44.1,213.4-5,164.3-5,103.7S44.1-5.9,104.6-5.9
			s109.6,49.1,109.6,109.6S165.2,213.4,104.6,213.4z"/>
		<linearGradient id="SVGID_12_" gradientUnits="userSpaceOnUse" x1="49.7817" y1="8.7675" x2="159.429" y2="198.6821">
			<stop  offset="0" style="stop-color:#FFB32C"/>
			<stop  offset="0.3324" style="stop-color:#FF9628"/>
			<stop  offset="1" style="stop-color:#FF5E1F"/>
		</linearGradient>
		<circle class="st8" cx="104.6" cy="103.7" r="109.6"/>
	</g>
</g>
</svg>
