<?xml version="1.0" encoding="utf-8"?>
<!-- Generator: Adobe Illustrator 24.3.0, SVG Export Plug-In . SVG Version: 6.00 Build 0)  -->
<svg version="1.1" id="Capa_1" xmlns="http://www.w3.org/2000/svg" xmlns:xlink="http://www.w3.org/1999/xlink" x="0px" y="0px"
	 viewBox="0 0 460.4 460.4" style="enable-background:new 0 0 460.4 460.4;" xml:space="preserve">
<style type="text/css">
	.st0{clip-path:url(#SVGID_2_);}
	.st1{fill:url(#SVGID_3_);}
	.st2{fill:url(#SVGID_4_);}
	.st3{clip-path:url(#SVGID_6_);}
	.st4{fill:url(#SVGID_7_);}
	.st5{fill:url(#SVGID_8_);}
	.st6{clip-path:url(#SVGID_10_);}
	.st7{fill:url(#SVGID_11_);}
	.st8{fill:url(#SVGID_12_);}
	.st9{clip-path:url(#SVGID_14_);}
	.st10{fill:url(#SVGID_15_);}
	.st11{fill:url(#SVGID_16_);}
</style>
<g>
	<defs>
		<path id="SVGID_1_" d="M439.1,53.7l-42-2.9V40.4c0-4.8-3.9-8.6-8.6-8.6h-42.4c-4.8,0-8.6,3.9-8.6,8.6v7.3c7.6,0.5,15.1,3,21.8,7.6
			c20,13.7,25.1,41,11.4,61l-7.5,11h25.3c4.8,0,8.6-3.9,8.6-8.6v-10.5l42-2.9c6.3-0.4,11.2-5.7,11.2-12V65.8
			C450.4,59.4,445.4,54.2,439.1,53.7z"/>
	</defs>
	<clipPath id="SVGID_2_">
		<use xlink:href="#SVGID_1_"  style="overflow:visible;"/>
	</clipPath>
	<g class="st0">
		<linearGradient id="SVGID_3_" gradientUnits="userSpaceOnUse" x1="54.0428" y1="-71.7475" x2="400.2054" y2="527.8237">
			<stop  offset="0" style="stop-color:#5C84C5"/>
			<stop  offset="0.5458" style="stop-color:#2E5A99"/>
			<stop  offset="1" style="stop-color:#1A3B71"/>
		</linearGradient>
		<path class="st1" d="M-26.3-25.4v506.8h506.8V-25.4H-26.3z M170.3,366.9c-107.6,0-194.9-87.2-194.9-194.9S62.6-22.8,170.3-22.8
			s194.9,87.2,194.9,194.9S277.9,366.9,170.3,366.9z"/>
		<linearGradient id="SVGID_4_" gradientUnits="userSpaceOnUse" x1="72.7993" y1="3.2707" x2="267.7071" y2="340.8608">
			<stop  offset="0" style="stop-color:#FFB32C"/>
			<stop  offset="0.3324" style="stop-color:#FF9628"/>
			<stop  offset="1" style="stop-color:#FF5E1F"/>
		</linearGradient>
		<circle class="st2" cx="170.3" cy="172.1" r="194.9"/>
	</g>
</g>
<g>
	<defs>
		<path id="SVGID_5_" d="M235.3,102.2c25.9,7,52.4-8.5,59.4-34.1c7-25.8-8.3-52.4-34.1-59.4c-25.8-7-52.4,8.3-59.4,34.1
			C194.2,68.6,209.5,95.2,235.3,102.2z"/>
	</defs>
	<clipPath id="SVGID_6_">
		<use xlink:href="#SVGID_5_"  style="overflow:visible;"/>
	</clipPath>
	<g class="st3">
		<linearGradient id="SVGID_7_" gradientUnits="userSpaceOnUse" x1="54.0428" y1="-71.7475" x2="400.2054" y2="527.8237">
			<stop  offset="0" style="stop-color:#5C84C5"/>
			<stop  offset="0.5458" style="stop-color:#2E5A99"/>
			<stop  offset="1" style="stop-color:#1A3B71"/>
		</linearGradient>
		<path class="st4" d="M-26.3-25.4v506.8h506.8V-25.4H-26.3z M170.3,366.9c-107.6,0-194.9-87.2-194.9-194.9S62.6-22.8,170.3-22.8
			s194.9,87.2,194.9,194.9S277.9,366.9,170.3,366.9z"/>
		<linearGradient id="SVGID_8_" gradientUnits="userSpaceOnUse" x1="72.7993" y1="3.2707" x2="267.7071" y2="340.8608">
			<stop  offset="0" style="stop-color:#FFB32C"/>
			<stop  offset="0.3324" style="stop-color:#FF9628"/>
			<stop  offset="1" style="stop-color:#FF5E1F"/>
		</linearGradient>
		<circle class="st5" cx="170.3" cy="172.1" r="194.9"/>
	</g>
</g>
<g>
	<defs>
		<path id="SVGID_9_" d="M346.9,73.4c-10-6.8-23.7-4.3-30.5,5.7l-42.9,62.6l-71.1-1l43.2-10.8c-54.5-14.7-50.8-13.7-52-14
			c-0.3-22.8-18.9-45.5-46.8-54.5c-33.4-10.8-67.5,2.2-76.1,28.9c-5.3,16.4,0.2,34.2,13,48c-24.3,4.2-46.7,21.1-59.8,45.9
			c22.3,8.7,41,9.3,55.9,1.6c13.5-6.9,22.1-19.6,27.3-30.8c2.8-6.2,4.7-11.9,5.9-16.1c-17.3-9.2-24.8-26.7-20.1-41.4
			c5.9-18.2,27.7-26.8,48.7-20c21.1,6.8,33.6,26.9,27.8,44.7c-5.1,15.9-21.9,23.9-39.1,22.1c-1.2,4.5-3.1,10.2-5.8,16.4
			C118,175.1,106.8,192.3,88,202c-22.5,11.6-47.8,8.2-71.2-1c-14.9,47,6.7,95.5,47.6,107.8c16.3,4.9,33.1,3.3,48.3-3.3
			c0.3,1.6-1.3-4.8,24.8,95.9l-74.8-0.4c0,0-0.1,0-0.1,0c-14.5,0-26.2,11.7-26.3,26.2c-0.1,14.5,11.6,26.4,26.2,26.5l109,0.6
			c0,0,0.1,0,0.1,0c8.1,0,15.8-3.7,20.8-10.2c5-6.4,6.8-14.9,4.7-22.8l-24.9-96.1l75.4,11l14.9,95.7c2.2,14.4,15.7,24.2,30.1,22
			c14.4-2.2,24.2-15.7,22-30.1l-17.9-114.8c-1.8-11.4-10.8-20.3-22.2-22l-29.7-4.4l21.6-80l-64.5-18.1l82.9,1.2c0.1,0,0.2,0,0.3,0
			c7.2,0,14-3.6,18.1-9.5l49.6-72.3C359.4,93.9,356.9,80.2,346.9,73.4z"/>
	</defs>
	<clipPath id="SVGID_10_">
		<use xlink:href="#SVGID_9_"  style="overflow:visible;"/>
	</clipPath>
	<g class="st6">
		<linearGradient id="SVGID_11_" gradientUnits="userSpaceOnUse" x1="54.0428" y1="-71.7475" x2="400.2054" y2="527.8237">
			<stop  offset="0" style="stop-color:#5C84C5"/>
			<stop  offset="0.5458" style="stop-color:#2E5A99"/>
			<stop  offset="1" style="stop-color:#1A3B71"/>
		</linearGradient>
		<path class="st7" d="M-26.3-25.4v506.8h506.8V-25.4H-26.3z M170.3,366.9c-107.6,0-194.9-87.2-194.9-194.9S62.6-22.8,170.3-22.8
			s194.9,87.2,194.9,194.9S277.9,366.9,170.3,366.9z"/>
		<linearGradient id="SVGID_12_" gradientUnits="userSpaceOnUse" x1="72.7993" y1="3.2707" x2="267.7071" y2="340.8608">
			<stop  offset="0" style="stop-color:#FFB32C"/>
			<stop  offset="0.3324" style="stop-color:#FF9628"/>
			<stop  offset="1" style="stop-color:#FF5E1F"/>
		</linearGradient>
		<circle class="st8" cx="170.3" cy="172.1" r="194.9"/>
	</g>
</g>
<g>
	<defs>
		<path id="SVGID_13_" d="M152,116.5c2.6-8.2-4.7-18.2-16.1-21.9c-11.9-3.8-23.3,0.5-25.9,8.3c-2.7,8.2,4.8,18.2,16.1,21.9
			C138.1,128.7,149.5,124.3,152,116.5z"/>
	</defs>
	<clipPath id="SVGID_14_">
		<use xlink:href="#SVGID_13_"  style="overflow:visible;"/>
	</clipPath>
	<g class="st9">
		<linearGradient id="SVGID_15_" gradientUnits="userSpaceOnUse" x1="54.0428" y1="-71.7475" x2="400.2054" y2="527.8237">
			<stop  offset="0" style="stop-color:#5C84C5"/>
			<stop  offset="0.5458" style="stop-color:#2E5A99"/>
			<stop  offset="1" style="stop-color:#1A3B71"/>
		</linearGradient>
		<path class="st10" d="M-26.3-25.4v506.8h506.8V-25.4H-26.3z M170.3,366.9c-107.6,0-194.9-87.2-194.9-194.9S62.6-22.8,170.3-22.8
			s194.9,87.2,194.9,194.9S277.9,366.9,170.3,366.9z"/>
		<linearGradient id="SVGID_16_" gradientUnits="userSpaceOnUse" x1="72.7993" y1="3.2707" x2="267.7071" y2="340.8608">
			<stop  offset="0" style="stop-color:#FFB32C"/>
			<stop  offset="0.3324" style="stop-color:#FF9628"/>
			<stop  offset="1" style="stop-color:#FF5E1F"/>
		</linearGradient>
		<circle class="st11" cx="170.3" cy="172.1" r="194.9"/>
	</g>
</g>
</svg>
