<svg id="Capa_1" data-name="Capa 1" xmlns="http://www.w3.org/2000/svg" viewBox="0 0 471 471.00002"><defs><style>.cls-1{fill:#34e0a1;}</style></defs><circle id="circle4" class="cls-1" cx="235.50001" cy="235.50001" r="235.5"/><path id="path6" d="M386.957,195.5576l28.41794-30.91784H352.3556a196.89215,196.89215,0,0,0-221.502,0h-63.177L96.09453,195.5576A86.86561,86.86561,0,1,0,213.661,323.46438L241.5,353.77687l27.839-30.2861A86.89256,86.89256,0,1,0,386.957,195.5576ZM154.64078,318.54376a58.78292,58.78292,0,1,1,58.78258-58.78258A58.77523,58.77523,0,0,1,154.64078,318.54376Zm86.885-60.493c0-38.68031-28.12815-71.88683-65.25582-86.06971a169.59589,169.59589,0,0,1,130.48522,0C269.65455,186.19036,241.52574,219.37113,241.52576,258.05078Zm86.85923,60.493a58.78292,58.78292,0,1,1,58.78259-58.78258A58.77581,58.77581,0,0,1,328.385,318.54376Zm0-89.62188a30.81256,30.81256,0,1,0,30.81224,30.81289A30.80358,30.80358,0,0,0,328.385,228.92188Zm-142.932,30.8393a30.81222,30.81222,0,1,1-30.81222-30.81288A30.8033,30.8033,0,0,1,185.453,259.76118Z" transform="translate(-6 -5.99998)"/></svg>