<?xml version="1.0" encoding="utf-8"?>
<!-- Generator: Adobe Illustrator 24.3.0, SVG Export Plug-In . SVG Version: 6.00 Build 0)  -->
<svg version="1.1" id="Capa_1" xmlns="http://www.w3.org/2000/svg" xmlns:xlink="http://www.w3.org/1999/xlink" x="0px" y="0px"
	 viewBox="0 0 414.4 414.4" style="enable-background:new 0 0 414.4 414.4;" xml:space="preserve">
<style type="text/css">
	.st0{clip-path:url(#SVGID_2_);}
	.st1{fill:url(#SVGID_3_);}
	.st2{fill:url(#SVGID_4_);}
	.st3{clip-path:url(#SVGID_6_);}
	.st4{fill:url(#SVGID_7_);}
	.st5{fill:url(#SVGID_8_);}
	.st6{clip-path:url(#SVGID_10_);}
	.st7{fill:url(#SVGID_11_);}
	.st8{fill:url(#SVGID_12_);}
	.st9{clip-path:url(#SVGID_14_);}
	.st10{fill:url(#SVGID_15_);}
	.st11{fill:url(#SVGID_16_);}
</style>
<g>
	<defs>
		<path id="SVGID_1_" d="M344.1,139.6l-35.6,0c-23.3-33-60.9-52.6-101.5-52.6c-40.6,0-78.2,19.6-101.5,52.7H69.9
			C35.8,139.6,8,167.4,8,201.5v19.1c0,34.1,27.8,61.9,61.9,61.9h35.6c23.3,33.1,60.9,52.7,101.5,52.7c40.5,0,78.1-19.6,101.4-52.6
			l35.6-0.1c34.2,0,61.9-27.8,61.9-61.9v-19.1C406,167.4,378.2,139.6,344.1,139.6z M168.3,188L148.8,242c-0.3,1-1.3,1.6-2.3,1.6
			l-7.3-0.1c-1,0-1.9-0.7-2.2-1.6l-11.5-34.2l-11.5,34.2c-0.3,1-1.2,1.6-2.2,1.6l-7.2,0.1c0,0,0,0,0,0c-1,0-1.9-0.6-2.3-1.6
			l-19.9-53.9c-0.2-0.6-0.2-1.3,0.1-1.8c0.3-0.6,0.8-1,1.4-1.2l7.2-2.7c1.2-0.5,2.6,0.2,3.1,1.4l13.8,37.3l11.8-35
			c0.3-1,1.2-1.6,2.3-1.6c0,0,0,0,0,0l7.3,0c1,0,1.9,0.7,2.3,1.6l11.7,34.8l13.4-37.1c0.2-0.6,0.7-1.1,1.2-1.4
			c0.6-0.3,1.2-0.3,1.8-0.1l7.2,2.6C168.2,185.4,168.8,186.8,168.3,188z M185.8,239c0,1.3-1.1,2.4-2.4,2.4h-7.7
			c-1.3,0-2.4-1.1-2.4-2.4v-34.7c0-1.3,1.1-2.4,2.4-2.4h7.7c1.3,0,2.4,1.1,2.4,2.4V239z M179.6,195.6c-4,0-7.2-3.2-7.2-7.2
			c0-4,3.2-7.2,7.2-7.2c4,0,7.2,3.2,7.2,7.2C186.8,192.3,183.6,195.6,179.6,195.6z M390.6,220.6c0,25.7-20.9,46.6-46.6,46.6
			l-110.5,0.1c-9.2,0-17.8,0-25.5,0c4.8-5,8.2-11.3,8.2-19.2v-47.5c0-25.2,20.5-45.7,45.7-45.7l82.1,0c25.7,0,46.6,20.9,46.6,46.5
			V220.6z"/>
	</defs>
	<clipPath id="SVGID_2_">
		<use xlink:href="#SVGID_1_"  style="overflow:visible;"/>
	</clipPath>
	<g class="st0">
		<linearGradient id="SVGID_3_" gradientUnits="userSpaceOnUse" x1="65.4371" y1="-25.2268" x2="346.4356" y2="461.4768">
			<stop  offset="0" style="stop-color:#5C84C5"/>
			<stop  offset="0.5458" style="stop-color:#2E5A99"/>
			<stop  offset="1" style="stop-color:#1A3B71"/>
		</linearGradient>
		<path class="st1" d="M0.2,12.4v411.4h411.4V12.4H0.2z M159.8,330.9c-87.4,0-158.2-70.8-158.2-158.2S72.4,14.5,159.8,14.5
			S318,85.3,318,172.7S247.1,330.9,159.8,330.9z"/>
		<linearGradient id="SVGID_4_" gradientUnits="userSpaceOnUse" x1="80.6628" y1="35.6694" x2="238.8797" y2="309.7092">
			<stop  offset="0" style="stop-color:#FFB32C"/>
			<stop  offset="0.3324" style="stop-color:#FF9628"/>
			<stop  offset="1" style="stop-color:#FF5E1F"/>
		</linearGradient>
		<circle class="st2" cx="159.8" cy="172.7" r="158.2"/>
	</g>
</g>
<g>
	<defs>
		<path id="SVGID_5_" d="M290.4,178.6h-35.2c-1.3,0-2.4,1.1-2.4,2.4v58.5c0,1.3,1.1,2.4,2.4,2.4h7.7c1.3,0,2.4-1.1,2.4-2.4v-20.9
			h20.2c1.3,0,2.4-1.1,2.4-2.4v-7.7c0-1.3-1.1-2.4-2.4-2.4h-20.2v-15h25.2c1.3,0,2.4-1.1,2.4-2.4V181
			C292.8,179.7,291.7,178.6,290.4,178.6z"/>
	</defs>
	<clipPath id="SVGID_6_">
		<use xlink:href="#SVGID_5_"  style="overflow:visible;"/>
	</clipPath>
	<g class="st3">
		<linearGradient id="SVGID_7_" gradientUnits="userSpaceOnUse" x1="65.4371" y1="-25.2268" x2="346.4356" y2="461.4768">
			<stop  offset="0" style="stop-color:#5C84C5"/>
			<stop  offset="0.5458" style="stop-color:#2E5A99"/>
			<stop  offset="1" style="stop-color:#1A3B71"/>
		</linearGradient>
		<path class="st4" d="M0.2,12.4v411.4h411.4V12.4H0.2z M159.8,330.9c-87.4,0-158.2-70.8-158.2-158.2S72.4,14.5,159.8,14.5
			S318,85.3,318,172.7S247.1,330.9,159.8,330.9z"/>
		<linearGradient id="SVGID_8_" gradientUnits="userSpaceOnUse" x1="80.6628" y1="35.6694" x2="238.8797" y2="309.7092">
			<stop  offset="0" style="stop-color:#FFB32C"/>
			<stop  offset="0.3324" style="stop-color:#FF9628"/>
			<stop  offset="1" style="stop-color:#FF5E1F"/>
		</linearGradient>
		<circle class="st5" cx="159.8" cy="172.7" r="158.2"/>
	</g>
</g>
<g>
	<defs>
		<path id="SVGID_9_" d="M313,202.8h-7.7c-1.3,0-2.4,1.1-2.4,2.4v34.7c0,1.3,1.1,2.4,2.4,2.4h7.7c1.3,0,2.4-1.1,2.4-2.4v-34.7
			C315.4,203.8,314.3,202.8,313,202.8z"/>
	</defs>
	<clipPath id="SVGID_10_">
		<use xlink:href="#SVGID_9_"  style="overflow:visible;"/>
	</clipPath>
	<g class="st6">
		<linearGradient id="SVGID_11_" gradientUnits="userSpaceOnUse" x1="65.4371" y1="-25.2268" x2="346.4356" y2="461.4768">
			<stop  offset="0" style="stop-color:#5C84C5"/>
			<stop  offset="0.5458" style="stop-color:#2E5A99"/>
			<stop  offset="1" style="stop-color:#1A3B71"/>
		</linearGradient>
		<path class="st7" d="M0.2,12.4v411.4h411.4V12.4H0.2z M159.8,330.9c-87.4,0-158.2-70.8-158.2-158.2S72.4,14.5,159.8,14.5
			S318,85.3,318,172.7S247.1,330.9,159.8,330.9z"/>
		<linearGradient id="SVGID_12_" gradientUnits="userSpaceOnUse" x1="80.6628" y1="35.6694" x2="238.8797" y2="309.7092">
			<stop  offset="0" style="stop-color:#FFB32C"/>
			<stop  offset="0.3324" style="stop-color:#FF9628"/>
			<stop  offset="1" style="stop-color:#FF5E1F"/>
		</linearGradient>
		<circle class="st8" cx="159.8" cy="172.7" r="158.2"/>
	</g>
</g>
<g>
	<defs>
		<path id="SVGID_13_" d="M309.2,181.1c-4,0-7.2,3.2-7.2,7.2c0,4,3.2,7.2,7.2,7.2c4,0,7.2-3.2,7.2-7.2
			C316.4,184.4,313.1,181.1,309.2,181.1z"/>
	</defs>
	<clipPath id="SVGID_14_">
		<use xlink:href="#SVGID_13_"  style="overflow:visible;"/>
	</clipPath>
	<g class="st9">
		<linearGradient id="SVGID_15_" gradientUnits="userSpaceOnUse" x1="65.4371" y1="-25.2268" x2="346.4356" y2="461.4768">
			<stop  offset="0" style="stop-color:#5C84C5"/>
			<stop  offset="0.5458" style="stop-color:#2E5A99"/>
			<stop  offset="1" style="stop-color:#1A3B71"/>
		</linearGradient>
		<path class="st10" d="M0.2,12.4v411.4h411.4V12.4H0.2z M159.8,330.9c-87.4,0-158.2-70.8-158.2-158.2S72.4,14.5,159.8,14.5
			S318,85.3,318,172.7S247.1,330.9,159.8,330.9z"/>
		<linearGradient id="SVGID_16_" gradientUnits="userSpaceOnUse" x1="80.6628" y1="35.6694" x2="238.8797" y2="309.7092">
			<stop  offset="0" style="stop-color:#FFB32C"/>
			<stop  offset="0.3324" style="stop-color:#FF9628"/>
			<stop  offset="1" style="stop-color:#FF5E1F"/>
		</linearGradient>
		<circle class="st11" cx="159.8" cy="172.7" r="158.2"/>
	</g>
</g>
</svg>
